<?xml version="1.0" encoding="utf-8"?>
<!-- Generator: Adobe Illustrator 15.1.0, SVG Export Plug-In . SVG Version: 6.00 Build 0)  -->
<!DOCTYPE svg PUBLIC "-//W3C//DTD SVG 1.1//EN" "http://www.w3.org/Graphics/SVG/1.1/DTD/svg11.dtd">
<svg version="1.1" id="Layer_2" xmlns="http://www.w3.org/2000/svg" xmlns:xlink="http://www.w3.org/1999/xlink" x="0px" y="0px"
	 width="274px" height="351px" viewBox="0 0 274 351" enable-background="new 0 0 274 351" xml:space="preserve">
<g id="white_circle__x28_mid_x29_">
	<path id="FAK_Background__x28_white_x29_" fill="#FFFFFF" d="M200.148,209.77c0,35.886-30.457,65.109-62.706,65.109
		C105.195,274.879,76,245.655,76,209.77c0-35.886,29.195-64.846,61.443-64.846C169.691,144.924,200.148,173.883,200.148,209.77z"/>
</g>
<g id="FK_font">
	<polygon fill="#441678" points="91.255,183.444 91.271,224.417 98.495,224.544 98.487,207.473 109.124,207.468 109.122,200.638 
		98.616,200.645 98.612,190.007 107.279,190.003 109.908,194.598 114.241,191.05 109.64,183.437 	"/>
	<polygon fill="#441678" points="177.018,200.218 187.912,183.404 180.163,183.407 170.187,199.038 170.18,183.019 162.961,182.888 
		162.975,223.862 170.33,223.858 170.325,210.2 172.949,207.179 182.016,223.198 190.03,223.194 	"/>
</g>
<g id="purple_circles">
	<path fill="#441678" d="M137.542,141.112c-38.429,0-69.583,31.138-69.583,69.548s31.154,69.548,69.583,69.548
		c38.43,0,69.583-31.138,69.583-69.548S175.972,141.112,137.542,141.112z M136.719,184.469l10.698,43.698H127L136.719,184.469z
		 M106.594,246.281c0,0-0.5,2.719-0.938,3.219s-0.906,2.281-4.469,2.5s-6.906-3.719-7.719-4.75s-5.625-6.563-9.688-16.719
		s-3.5-20.313-3.531-20.531s0.438-10.438,4-18.5s7.563-14.563,13.25-20.313s15.375-12.813,24.063-15.375
		c0,0,4.953-1.775,4.953,1.375c0,0.141-0.245,2.745-0.349,2.771c0,0-3.292,15.917-4,18.458s-13.354,58.021-13.354,58.021
		L106.594,246.281z M149.042,266.791c-0.792,0.292-7.021,1.084-10.479,1.084s-9.875-0.624-13.708-1.396s-5.062-3.48-4.458-7.188
		s3.698-18.041,3.698-18.041h27.219c0,0,2.94,9.719,3.375,11.469c0.438,1.761,1.312,5.614,1.333,6.531
		S157.193,263.786,149.042,266.791z M182.605,246c-5.021,6.813-8.292,4.688-8.771,4.479c-3.664-1.597-5.229-6.458-5.334-6.854
		c-0.15-0.57-23.667-83.625-23.667-83.625c-2.604-6.563,5.479-5.313,6.667-5c14.44,3.8,21.75,10.438,28.5,17
		s13.688,21.625,14.625,33.188s-1.812,22.271-4.146,27.417S187.626,239.188,182.605,246z"/>
	<path fill="#441678" d="M137.562,86.925c-68.311,0-123.687,55.375-123.687,123.683c0,68.308,55.376,123.682,123.687,123.682
		s123.688-55.374,123.688-123.682C261.249,142.3,205.872,86.925,137.562,86.925z M72.529,212.5
		c0-36.778,27.541-66.686,64.427-66.686c36.887,0,65.487,30.408,65.487,67.186s-28.014,63.212-64.901,63.212
		C100.655,276.212,72.529,249.278,72.529,212.5z"/>
</g>
<g id="white_circles">
	<path fill="#FFFFFF" d="M137.556,137.734c-40.243,0-72.868,32.62-72.868,72.86c0,40.238,32.625,72.858,72.868,72.858
		c40.244,0,72.866-32.62,72.866-72.858C210.422,170.354,177.8,137.734,137.556,137.734z M137.75,280
		c-38.43,0-69.584-31.062-69.584-69.378s31.154-69.378,69.584-69.378s69.583,31.062,69.583,69.378S176.18,280,137.75,280z"/>
	<path fill="#FFFFFF" d="M137.555,95.75c-63.431,0-114.852,51.428-114.852,114.867c0,63.439,51.421,114.867,114.852,114.867
		c63.43,0,114.851-51.428,114.851-114.867C252.406,147.178,200.985,95.75,137.555,95.75z M137.576,320.125
		c-60.525,0-109.592-49.05-109.592-109.555s49.067-109.555,109.592-109.555c60.525,0,109.591,49.05,109.591,109.555
		S198.102,320.125,137.576,320.125z"/>
</g>
<g id="FONT">
	<path id="_x31__2_" fill="#FFFFFF" d="M36.77,202.439v1.767h2.592v15.08h2.964v-19.3h-1.667
		C39.573,200.911,38.225,201.702,36.77,202.439z"/>
	<path id="_x39_" fill="#FFFFFF" d="M52.271,199.986c-3.279,0-4.656,1.796-4.656,5.802v2.269c0,2.794,1.586,3.901,3.492,3.901
		c1.323,0,1.851-0.422,2.698-1.267v4.456c0,1.238-0.555,1.818-1.534,1.818s-1.401-0.58-1.401-1.818v-0.977h-2.86v1.16
		c0,2.426,1.669,4.273,4.261,4.221c3.281,0,4.658-1.637,4.658-5.221v-9.123C56.93,201.62,55.552,199.986,52.271,199.986z
		 M53.806,208.503c-0.396,0.315-1.111,0.869-1.692,0.869c-0.821,0-1.377-0.58-1.377-1.818v-3.164c0-1.237,0.556-1.819,1.535-1.819
		s1.534,0.582,1.534,1.819V208.503z"/>
	<path id="_x31_" fill="#FFFFFF" d="M219.469,202.704v1.768h2.59v15.08h2.966v-19.301h-1.67
		C222.271,201.173,220.924,201.964,219.469,202.704z"/>
	<path id="_x31__1_" fill="#FFFFFF" d="M235.08,200.251c-1.088,0.922-2.439,1.713-3.895,2.453v1.768h2.596v15.08h2.966v-19.301
		H235.08z"/>
</g>
<g id="Fussballklub_Austria_Wien_Font">
	<polygon fill="#FFFFFF" points="70.968,168.575 62.967,163.673 65.559,159.436 62.857,157.781 60.268,162.02 55.618,159.17 
		59.081,153.503 56.38,151.85 50.981,160.682 69.035,171.739 	"/>
	<path fill="#FFFFFF" d="M81.4,155.124c2.405-2.583,2.418-5.524-0.234-8.015l-11.546-10.847l-2.527,2.714l11.654,10.947
		c1.133,1.065,1.261,2.047,0.344,3.031c-0.917,0.985-1.901,0.923-3.034-0.142l-11.654-10.947l-2.526,2.713l11.546,10.847
		C76.076,157.916,78.996,157.706,81.4,155.124z"/>
	<path fill="#FFFFFF" d="M92.057,139.289c0.726,1.034,0.409,2.089-0.637,2.835c-0.972,0.693-2.285,0.331-3.639-1.337l-2.583,2.455
		c1.945,2.509,5.104,3.576,7.9,1.582c2.821-2.012,3.652-4.985,1.643-7.846c-3.309-4.71-10.433-1.759-12.51-4.715
		c-0.759-1.081-0.663-2.088,0.309-2.781c0.681-0.486,1.788-0.626,2.956,0.778l2.65-2.359c-1.99-2.261-4.681-2.975-7.138-1.224
		c-2.966,2.116-3.571,4.892-1.629,7.656C82.874,139.308,89.643,135.852,92.057,139.289z"/>
	<path fill="#FFFFFF" d="M106.138,131.625c0.515,1.155,0.003,2.132-1.163,2.664c-1.086,0.494-2.304-0.115-3.313-2.014l-2.999,1.915
		c1.429,2.841,4.32,4.497,7.441,3.076c3.148-1.435,4.529-4.197,3.105-7.396c-2.345-5.267-9.889-3.737-11.361-7.042
		c-0.538-1.21-0.253-2.181,0.833-2.676c0.759-0.346,1.87-0.27,2.748,1.335l3.046-1.809c-1.518-2.605-4.02-3.825-6.761-2.576
		c-3.31,1.509-4.432,4.121-3.056,7.211C97.134,129.876,104.426,127.783,106.138,131.625z"/>
	<path fill="#FFFFFF" d="M121.757,120.17c1.587-1.094,1.925-3.139,1.528-4.922c-0.786-3.539-2.933-5.099-6.789-4.205l-5.336,1.237
		l4.618,20.77l5.683-1.317c4.09-0.947,5.051-3.892,4.29-7.316C125.157,121.742,123.764,120.552,121.757,120.17z M115.409,114.381
		l1.363-0.316c1.595-0.37,2.573,0.462,3.001,2.39c0.384,1.726-0.455,2.889-1.818,3.205l-1.305,0.302L115.409,114.381z
		 M120.229,128.934l-1.507,0.35l-1.421-6.387l1.16-0.268c2.147-0.498,3.195,0.379,3.668,2.507
		C122.597,127.235,122.144,128.491,120.229,128.934z"/>
	<path fill="#FFFFFF" d="M138.916,108.402l-4.575,0.115l-3.577,21.411l3.565-0.09l0.57-4.739l4.04-0.103l0.736,4.706l3.566-0.09
		L138.916,108.402z M135.379,121.897l1.294-9.187l0.059-0.001l1.617,9.113L135.379,121.897z"/>
	<polygon fill="#FFFFFF" points="154.281,109.599 150.646,109.013 147.139,130.064 156.488,131.567 157.012,128.419 151.299,127.5 	
		"/>
	<polygon fill="#FFFFFF" points="170.429,132.758 164.965,130.859 170.979,113.724 167.506,112.516 160.433,132.667 
		169.371,135.773 	"/>
	<polygon fill="#FFFFFF" points="179.99,132.725 182.297,131.317 182.349,131.347 180.014,141.464 183.256,143.32 186.023,129.461 
		193.423,124.526 190.23,122.701 182.964,127.643 182.912,127.613 186.834,120.756 183.643,118.929 173.039,137.472 176.23,139.299 
			"/>
	<polygon fill="#FFFFFF" points="193.048,151.577 195.113,149.138 190.711,145.386 202.443,131.524 199.643,129.138 
		185.848,145.438 	"/>
	<path fill="#FFFFFF" d="M199.203,159.158c2.167,2.754,5.06,3.183,7.926,0.9l12.477-9.942l-2.275-2.895l-12.594,10.035
		c-1.226,0.976-2.212,0.964-3.037-0.086c-0.825-1.051-0.611-2.02,0.613-2.995l12.596-10.035l-2.276-2.894l-12.479,9.942
		C197.287,153.471,197.039,156.403,199.203,159.158z"/>
	<path fill="#FFFFFF" d="M227.213,163.471l-2.367-4.935l-19.126,9.37l2.522,5.256c1.813,3.782,4.878,4.035,8.029,2.491
		c2.465-1.207,3.313-2.848,3.244-4.901c1.408,1.298,3.464,1.151,5.105,0.347C227.879,169.502,228.922,167.039,227.213,163.471z
		 M214.784,172.275c-1.935,0.948-3.249,0.797-4.099-0.973l-0.668-1.395l5.88-2.88l0.515,1.072
		C217.363,170.084,216.743,171.315,214.784,172.275z M222.682,167.942c-1.59,0.779-2.898,0.228-3.504-1.032l-0.578-1.207l5.14-2.518
		l0.605,1.261C225.051,165.921,224.457,167.072,222.682,167.942z"/>
	<path fill="#FFFFFF" d="M69.411,252.542l-19.986,7.979l1.929,3.033l4.309-1.957l2.185,3.438l-3.602,3.068l1.928,3.033
		l15.711-14.701L69.411,252.542z M60.229,262.884l-1.607-2.529l8.451-3.631l0.031,0.051L60.229,262.884z"/>
	<path fill="#FFFFFF" d="M81.66,268.312l-11.586,10.98c-1.126,1.068-2.111,1.135-3.038,0.156c-0.927-0.979-0.806-1.959,0.32-3.027
		l11.586-10.98l-2.554-2.695l-11.479,10.879c-2.636,2.498-2.599,5.434-0.169,8c2.429,2.566,5.357,2.762,7.994,0.264l11.479-10.879
		L81.66,268.312z"/>
	<path fill="#FFFFFF" d="M93.771,284.247c1.458-2.629,1.229-5.414-1.237-7.166c-2.979-2.113-5.789-1.773-7.735,0.977
		c-3.504,4.949,2.006,10.225-0.415,13.645c-0.727,1.027-1.824,1.074-2.875,0.33c-0.976-0.693-1.075-2.057,0.038-3.889l-3.168-1.639
		c-1.706,2.67-1.652,6.012,1.156,8.006c2.832,2.01,5.903,1.818,7.917-1.027c3.318-4.686-1.837-10.463,0.245-13.404
		c0.761-1.076,1.739-1.316,2.715-0.623c0.684,0.484,1.185,1.486,0.258,3.057L93.771,284.247z"/>
	<polygon fill="#FFFFFF" points="109.248,286.558 99.375,281.944 98.041,284.813 101.294,286.335 93.707,302.647 97.069,304.22 
		104.659,287.905 107.913,289.427 	"/>
	<path fill="#FFFFFF" d="M117.895,289.13l-5.05-1.27l-5.118,20.537l3.599,0.904l2.098-8.418c0.639,0.16,1.4,0.322,1.878,0.381
		l0.435,9.146l3.657,0.92l-0.73-10.068c1.354-0.234,2.993-1.242,3.816-4.541C123.57,292.343,121.929,290.146,117.895,289.13z
		 M118.88,295.817c-0.61,2.445-1.512,2.975-3.457,2.484l-1.276-0.32l1.573-6.314l1.277,0.322
		C118.941,292.478,119.49,293.37,118.88,295.817z"/>
	<polygon fill="#FFFFFF" points="128.146,312.374 131.845,312.661 133.439,291.55 129.742,291.265 	"/>
	<path fill="#FFFFFF" d="M141.91,291.562l-2.146,21.434l3.576-0.301l0.253-4.73l4.053-0.342l1.06,4.621l3.576-0.303l-5.781-20.766
		L141.91,291.562z M143.858,304.761l0.68-9.182l0.059-0.006l2.242,8.938L143.858,304.761z"/>
	<polygon fill="#FFFFFF" points="175.396,282.185 179.1,295.329 179.045,295.354 171.176,284.097 168.399,285.354 171.774,298.646 
		171.72,298.671 164.07,287.315 160.912,288.747 173.402,306.351 176.232,305.067 172.734,291.286 172.789,291.261 181.026,302.897 
		183.859,301.616 178.556,280.755 	"/>
	
		<rect x="179.083" y="283.613" transform="matrix(-0.5804 -0.8144 0.8144 -0.5804 67.2869 605.6067)" fill="#FFFFFF" width="21.192" height="3.707"/>
	<polygon fill="#FFFFFF" points="205.025,282.403 200.682,277.95 204.103,274.608 201.89,272.341 198.467,275.681 194.656,271.774 
		199.102,267.429 196.891,265.161 189.79,272.093 204.588,287.263 211.987,280.038 209.773,277.769 	"/>
	<polygon fill="#FFFFFF" points="204.72,254.812 214.666,261.735 214.633,261.786 202.112,258.567 200.148,261.392 217.539,273.497 
		219.447,270.747 208.586,263.187 208.621,263.136 222.176,266.817 224.017,264.167 206.629,252.062 	"/>
</g>
<g id="Sterne">
	<polygon fill="#A39161" points="93.436,22.177 100.036,42.491 121.395,42.491 104.116,55.046 110.715,75.362 93.436,62.808 
		76.153,75.362 82.756,55.046 65.477,42.491 86.834,42.491 	"/>
	<polygon fill="#A39161" points="179.938,22.177 186.54,42.491 207.899,42.491 190.62,55.046 197.222,75.362 179.938,62.808 
		162.657,75.362 169.259,55.046 151.979,42.491 173.337,42.491 	"/>
</g>
</svg>
